<svg width="80" height="41" viewBox="0 0 80 41" fill="none" xmlns="http://www.w3.org/2000/svg">
<path d="M54.726 10.5067L52.5089 10.6424C52.475 9.36418 51.9772 8.73072 51.0157 8.73072C49.9072 8.73072 49.3529 9.71485 49.3529 11.6831C49.3529 12.8143 49.4999 13.5835 49.8053 13.9907C50.1108 14.398 50.5293 14.6016 51.0723 14.6016C51.9433 14.6016 52.4863 14.036 52.6786 12.8935L54.7373 13.0179C54.5903 14.0926 54.1944 14.9183 53.5156 15.4839C52.8369 16.0495 52.0225 16.321 51.0383 16.321C49.8393 16.321 48.8665 15.9025 48.1199 15.0767C47.3733 14.2509 47 13.1197 47 11.6605C47 10.2918 47.362 9.17188 48.0859 8.31218C48.8099 7.45248 49.8053 7 51.061 7C53.2328 7 54.4545 8.16512 54.726 10.5067Z" fill="#FFC700"/>
<path d="M59.3413 16.321C58.1196 16.321 57.1807 15.8685 56.5133 14.9523C55.8459 14.036 55.5178 12.9274 55.5178 11.6379C55.5178 10.3144 55.8572 9.21713 56.5359 8.3348C57.2146 7.45248 58.1648 7 59.4204 7C60.6874 7 61.6376 7.4751 62.2823 8.41399C62.9271 9.35287 63.2439 10.4388 63.2439 11.6492C63.2439 12.9614 62.9158 14.0699 62.2484 14.9749C61.581 15.8798 60.6195 16.321 59.3413 16.321ZM59.4091 8.73072C58.3006 8.73072 57.7463 9.70354 57.7463 11.6605C57.7463 13.6175 58.3006 14.6016 59.4091 14.6016C60.4838 14.6016 61.0267 13.6288 61.0267 11.6718C61.0154 9.70354 60.4838 8.73072 59.4091 8.73072Z" fill="#FFC700"/>
<path d="M64.6239 7.13574H67.384C68.5152 7.13574 69.3523 7.29411 69.8952 7.59953C70.4382 7.90495 70.9472 8.40267 71.3771 9.08139C71.8069 9.7601 72.0332 10.6085 72.0332 11.6379C72.0332 12.9274 71.6486 14.0134 70.8907 14.8844C70.1215 15.7554 69.0695 16.1853 67.7347 16.1853H64.6239V7.13574ZM66.7053 8.79859V14.4772H67.5763C68.3455 14.4772 68.9224 14.1944 69.2957 13.6175C69.669 13.0405 69.8613 12.3618 69.8613 11.5813C69.8613 11.0383 69.7595 10.5293 69.5446 10.0655C69.3296 9.60173 69.0695 9.27369 68.7527 9.08139C68.436 8.88908 68.0514 8.79859 67.6102 8.79859H66.7053Z" fill="#FFC700"/>
<path d="M79.8836 8.86644H75.5738V10.7216H78.956V12.4297H75.5738V14.4093H79.8836V16.1965H73.4245V7.14703H79.8836V8.86644Z" fill="#FFC700"/>
<path d="M47.4298 23.4249H50.1899C51.3211 23.4249 52.1582 23.5832 52.7012 23.8887C53.2442 24.1941 53.7532 24.6918 54.183 25.3705C54.6129 26.0492 54.8391 26.8976 54.8391 27.927C54.8391 29.2166 54.4545 30.3025 53.6966 31.1735C52.9274 32.0445 51.8754 32.4744 50.5406 32.4744H47.4298V23.4249ZM49.5112 25.0877V30.7663H50.3822C51.1515 30.7663 51.7284 30.4835 52.1017 29.9066C52.4749 29.3297 52.6673 28.651 52.6673 27.8704C52.6673 27.3275 52.5654 26.8184 52.3505 26.3546C52.1356 25.8909 51.8754 25.5628 51.5587 25.3705C51.242 25.1782 50.8573 25.0877 50.4162 25.0877H49.5112Z" fill="#FFC700"/>
<path d="M62.7009 25.1556H58.3911V27.0107H61.7733V28.7188H58.3911V30.6984H62.7009V32.4857H56.2305V23.4362H62.6896V25.1556H62.7009Z" fill="#FFC700"/>
<path d="M66.1171 29.1147V32.4744H63.9678V23.4249H67.5311C68.3229 23.4249 68.9337 23.5154 69.3523 23.685C69.7708 23.8547 70.1554 24.1601 70.4835 24.6013C70.8115 25.0425 70.9812 25.5741 70.9812 26.2076C70.9812 26.6488 70.8907 27.0899 70.721 27.5085C70.5513 27.927 70.2912 28.2664 69.9744 28.5039C69.6577 28.7415 69.341 28.9111 69.0355 28.9903C68.7301 29.0695 68.255 29.1147 67.6102 29.1147H66.1171ZM66.0492 27.4745H67.4293C67.9496 27.4745 68.3229 27.3501 68.5378 27.1125C68.7527 26.875 68.8546 26.5922 68.8546 26.2755C68.8546 25.9135 68.7414 25.6194 68.5039 25.4044C68.2663 25.1895 67.9044 25.0764 67.4293 25.0764H66.0605V27.4745H66.0492Z" fill="#FFC700"/>
<path d="M75.5625 32.6101C74.3408 32.6101 73.4019 32.1576 72.7345 31.2414C72.0671 30.3251 71.7391 29.2166 71.7391 27.9157C71.7391 26.5922 72.0784 25.4949 72.7571 24.6126C73.4359 23.7303 74.3974 23.2891 75.6417 23.2891C76.9086 23.2891 77.8588 23.7642 78.5036 24.7031C79.1484 25.642 79.4651 26.7279 79.4651 27.9383C79.4651 29.2505 79.137 30.3591 78.4696 31.264C77.7909 32.169 76.8294 32.6101 75.5625 32.6101ZM75.619 25.0198C74.5105 25.0198 73.9562 25.9927 73.9562 27.9496C73.9562 29.9066 74.5105 30.8907 75.619 30.8907C76.6937 30.8907 77.2366 29.9179 77.2366 27.9609C77.2253 25.9927 76.6937 25.0198 75.619 25.0198Z" fill="#FFC700"/>
<path d="M41.3382 5.84828C41.265 5.69482 41.1134 5.58963 40.8868 5.62609C35.6573 6.54291 30.4294 7.49809 25.2065 8.4516C19.9536 9.41508 14.7023 10.3836 9.45109 11.3354C6.49894 11.8727 3.53846 12.4016 0.581317 12.9239C0.198138 12.9902 -0.056933 13.5084 0.311128 13.7806C2.72766 15.6053 5.09419 17.4966 7.37406 19.4946C7.76088 23.128 8.33928 26.7365 8.72443 30.3649C8.72608 30.4199 8.73772 30.4716 8.75436 30.5217C8.80927 30.7201 8.94416 30.8253 9.10407 30.8555C9.22567 30.8873 9.36228 30.8807 9.49392 30.7925C11.2868 29.6739 13.0664 28.5319 14.8593 27.4132C15.8018 28.4779 16.7377 29.5559 17.7418 30.5556C18.8126 31.622 20.0517 32.4102 21.2508 33.3117C21.7555 33.694 22.2917 34.0547 22.4831 34.6801C22.6328 35.1637 22.8009 35.6691 23.3306 35.843C23.3439 35.8497 23.3556 35.8514 23.3672 35.8531C23.5454 35.9549 23.7637 35.9435 23.9104 35.7169C23.9154 35.7152 23.9137 35.7102 23.9187 35.7085C23.942 35.6786 23.9604 35.6502 23.982 35.6152C28.8042 28.2157 33.3132 20.6257 37.664 12.9439C38.9075 10.741 40.1445 8.53474 41.3747 6.32515C41.468 6.13851 41.4398 5.97009 41.3382 5.84828ZM11.7021 23.9622C11.7071 23.9439 11.7121 23.9255 11.7221 23.9055C12.5513 24.83 13.374 25.7512 14.2032 26.6757C12.8202 27.5413 11.4455 28.4152 10.0642 29.2858C10.6063 27.5107 11.1533 25.734 11.7021 23.9622ZM11.3394 22.488C11.1512 22.5561 11.0578 22.6928 11.0345 22.8395C11.0311 22.8461 11.0311 22.8461 11.0278 22.8528C10.4924 24.5812 9.96368 26.313 9.42829 28.0414C9.07949 25.2234 8.66572 22.4103 8.35857 19.584C15.0063 17.3564 21.5924 14.9437 28.102 12.3342C26.4374 13.2712 24.7912 14.2466 23.1932 15.3004C21.3753 16.4941 19.6256 17.7928 17.8144 19.0064C15.7781 20.3783 13.6653 21.67 11.3394 22.488Z" fill="#FFC700"/>
</svg>
